<?xml version="1.0" encoding="utf-8"?>
<!-- Generator: Adobe Illustrator 16.0.0, SVG Export Plug-In . SVG Version: 6.00 Build 0)  -->
<!DOCTYPE svg PUBLIC "-//W3C//DTD SVG 1.1//EN" "http://www.w3.org/Graphics/SVG/1.1/DTD/svg11.dtd">
<svg version="1.1" id="Layer_1" xmlns="http://www.w3.org/2000/svg" xmlns:xlink="http://www.w3.org/1999/xlink" x="0px" y="0px"
	 width="960px" height="560px" viewBox="0 0 960 560" enable-background="new 0 0 960 560" xml:space="preserve">
<g>
	<path fill="#2E3192" d="M279.757,156.422l4.608,17.713c1.008,3.889,1.944,7.489,2.592,11.089h0.216
		c0.792-3.528,1.944-7.273,3.096-11.017l5.688-17.786h5.329l5.4,17.426c1.296,4.176,2.304,7.849,3.096,11.377h0.216
		c0.576-3.528,1.512-7.201,2.665-11.305l4.968-17.498h6.265l-11.233,34.851h-5.761l-5.328-16.633
		c-1.224-3.889-2.232-7.345-3.096-11.449h-0.144c-0.864,4.176-1.944,7.777-3.168,11.521l-5.617,16.562h-5.76l-10.513-34.851H279.757
		z"/>
	<path fill="#2E3192" d="M338.725,146.629c0.072,2.16-1.512,3.889-4.032,3.889c-2.232,0-3.816-1.729-3.816-3.889
		c0-2.232,1.656-3.96,3.96-3.96C337.212,142.669,338.725,144.397,338.725,146.629z M331.668,191.273v-34.851h6.336v34.851H331.668z"
		/>
	<path fill="#2E3192" d="M349.955,165.855c0-3.601-0.072-6.553-0.288-9.433h5.617l0.36,5.761h0.144
		c1.728-3.313,5.761-6.553,11.521-6.553c4.825,0,12.313,2.88,12.313,14.833v40.001l-4.611,2.007l-1.725-41.289
		c0-5.616-2.088-10.297-8.064-10.297c-4.177,0-7.417,2.952-8.497,6.48c-0.288,0.792-0.432,1.873-0.432,2.953v20.954h-6.336V165.855z
		"/>
	<path fill="#2E3192" d="M389.843,187.529c0-2.665,1.8-4.537,4.32-4.537c2.521,0,4.249,1.872,4.249,4.537
		c0,2.592-1.656,4.536-4.32,4.536C391.571,192.065,389.843,190.121,389.843,187.529z"/>
	<path fill="#2E3192" d="M407.698,167.799c0-4.464-0.144-8.064-0.288-11.377h5.688l0.288,5.977h0.144
		c2.592-4.249,6.697-6.769,12.385-6.769c8.425,0,14.761,7.128,14.761,17.713c0,12.529-7.633,18.722-15.841,18.722
		c-4.608,0-8.641-2.016-10.729-5.472h-0.144l-0.246,47.111l-6.307,2.014L407.698,167.799z M413.962,177.088
		c0,0.936,0.144,1.8,0.288,2.592c1.152,4.392,4.968,7.417,9.505,7.417c6.696,0,10.585-5.473,10.585-13.465
		c0-6.984-3.672-12.961-10.369-12.961c-4.32,0-8.353,3.096-9.577,7.849c-0.216,0.792-0.432,1.728-0.432,2.592V177.088z"/>
</g>
</svg>
